<svg width="289" height="118" viewBox="0 0 289 118" fill="none" xmlns="http://www.w3.org/2000/svg">
<path d="M6.79545 94.748V42.3844H20.875V51.5208H21.4205C22.375 48.2708 23.9773 45.8162 26.2273 44.1571C28.4773 42.4753 31.0682 41.6344 34 41.6344C35.6136 41.6344 37.1364 41.8049 38.5682 42.1458V55.0321C37.8864 54.8049 36.9432 54.623 35.7386 54.4867C34.5341 54.3276 33.4318 54.248 32.4318 54.248C29.2273 54.248 26.5682 55.2594 24.4545 57.2821C22.3636 59.2821 21.3182 61.8958 21.3182 65.123V94.748H6.79545ZM60.7828 95.7708C55.4192 95.7708 50.7942 94.6799 46.9078 92.498C43.0215 90.2935 40.0328 87.1799 37.9419 83.1571C35.851 79.1117 34.8056 74.3276 34.8056 68.8049C34.8056 63.4185 35.851 58.6912 37.9419 54.623C40.0328 50.5549 42.976 47.3844 46.7715 45.1117C50.5897 42.839 55.0669 41.7026 60.2033 41.7026C64.8169 41.7026 68.976 42.6799 72.6806 44.6344C76.4078 46.589 79.3624 49.5435 81.5442 53.498C83.726 57.4299 84.8169 62.3617 84.8169 68.2935V72.2821H49.1578V72.3162C49.1578 76.2253 50.226 79.3049 52.3624 81.5549C54.4988 83.8049 57.3851 84.9299 61.0215 84.9299C63.4533 84.9299 65.5556 84.4185 67.3283 83.3958C69.101 82.373 70.351 80.8617 71.0783 78.8617L84.5101 79.748C83.4874 84.6117 80.8965 88.498 76.7374 91.4071C72.5783 94.3162 67.2601 95.7708 60.7828 95.7708ZM49.1578 63.2821H71.1465C71.1238 60.1685 70.1238 57.6003 68.1465 55.5776C66.1692 53.5549 63.601 52.5435 60.4419 52.5435C57.2147 52.5435 54.5669 53.589 52.4988 55.6799C50.4306 57.7708 49.3169 60.3049 49.1578 63.2821ZM87.8469 94.748V24.9299H102.37V51.1799H102.813C103.472 49.748 104.404 48.3049 105.608 46.8503C106.813 45.3958 108.404 44.1799 110.381 43.2026C112.358 42.2026 114.801 41.7026 117.711 41.7026C121.551 41.7026 125.074 42.7026 128.279 44.7026C131.483 46.6799 134.051 49.6685 135.983 53.6685C137.938 57.6458 138.915 62.6344 138.915 68.6344C138.915 74.4753 137.972 79.4071 136.086 83.4299C134.199 87.4299 131.654 90.464 128.449 92.5321C125.245 94.5776 121.654 95.6003 117.676 95.6003C114.858 95.6003 112.461 95.1344 110.483 94.2026C108.529 93.2708 106.926 92.1003 105.676 90.6912C104.449 89.2594 103.495 87.8162 102.813 86.3617H102.165V94.748H87.8469ZM102.063 68.5662C102.063 73.2253 103.017 76.9753 104.926 79.8162C106.858 82.6344 109.574 84.0435 113.074 84.0435C116.642 84.0435 119.37 82.6117 121.256 79.748C123.142 76.8617 124.086 73.1344 124.086 68.5662C124.086 64.0208 123.142 60.339 121.256 57.5208C119.392 54.6799 116.665 53.2594 113.074 53.2594C109.551 53.2594 106.836 54.6458 104.926 57.4185C103.017 60.1685 102.063 63.8844 102.063 68.5662ZM156.817 95.7367C151.817 95.7367 147.67 94.4299 144.374 91.8162C141.079 89.2026 139.431 85.3049 139.431 80.123C139.431 76.214 140.351 73.1458 142.192 70.9185C144.033 68.6912 146.442 67.0662 149.42 66.0435C152.42 64.998 155.647 64.3162 159.101 63.998C163.647 63.5435 166.897 63.0662 168.851 62.5662C170.806 62.0662 171.783 60.9753 171.783 59.2935V59.089C171.783 56.9299 171.101 55.2594 169.738 54.0776C168.397 52.8958 166.488 52.3049 164.01 52.3049C161.397 52.3049 159.317 52.873 157.772 54.0094C156.226 55.1458 155.204 56.589 154.704 58.339L141.272 57.248C142.272 52.4753 144.749 48.6912 148.704 45.8958C152.681 43.1003 157.806 41.7026 164.079 41.7026C167.965 41.7026 171.601 42.3162 174.988 43.5435C178.374 44.7708 181.101 46.6912 183.17 49.3049C185.26 51.8958 186.306 55.2708 186.306 59.4299V94.748H172.533V87.4867H172.124C170.851 89.9185 168.942 91.9071 166.397 93.4526C163.874 94.9753 160.681 95.7367 156.817 95.7367ZM160.976 85.714C164.158 85.714 166.772 84.7935 168.817 82.9526C170.863 81.089 171.885 78.7821 171.885 76.0321V70.4753C171.317 70.8617 170.431 71.2026 169.226 71.498C168.045 71.7935 166.772 72.0549 165.408 72.2821C164.067 72.4867 162.863 72.6685 161.795 72.8276C159.249 73.1912 157.192 73.9071 155.624 74.9753C154.079 76.0435 153.306 77.6003 153.306 79.6458C153.306 81.6458 154.022 83.1571 155.454 84.1799C156.908 85.2026 158.749 85.714 160.976 85.714ZM234.421 57.3162L221.126 58.1344C220.762 56.4526 219.842 55.0094 218.364 53.8049C216.887 52.6003 214.887 51.998 212.364 51.998C210.114 51.998 208.205 52.4753 206.637 53.4299C205.092 54.3617 204.33 55.6117 204.353 57.1799C204.33 58.4299 204.819 59.4867 205.819 60.3503C206.842 61.214 208.569 61.9071 211.001 62.4299L220.478 64.339C230.546 66.4071 235.592 71.1344 235.614 78.5208C235.614 81.9526 234.603 84.964 232.58 87.5549C230.58 90.1458 227.83 92.1685 224.33 93.623C220.83 95.0549 216.819 95.7708 212.296 95.7708C205.364 95.7708 199.842 94.3276 195.728 91.4412C191.614 88.5321 189.217 84.5776 188.535 79.5776L202.819 78.8276C203.273 80.964 204.319 82.5776 205.955 83.6685C207.614 84.7594 209.739 85.3049 212.33 85.3049C214.876 85.3049 216.921 84.8049 218.467 83.8049C220.035 82.8049 220.83 81.5321 220.853 79.9867C220.785 77.3958 218.546 75.6571 214.137 74.7708L205.069 72.964C194.932 70.9412 189.887 65.9526 189.932 57.998C189.91 52.9526 191.921 48.9753 195.967 46.0662C200.035 43.1571 205.421 41.7026 212.126 41.7026C218.739 41.7026 223.944 43.1003 227.739 45.8958C231.557 48.6912 233.785 52.498 234.421 57.3162ZM281.607 57.3162L268.312 58.1344C267.948 56.4526 267.028 55.0094 265.551 53.8049C264.073 52.6003 262.073 51.998 259.551 51.998C257.301 51.998 255.391 52.4753 253.823 53.4299C252.278 54.3617 251.516 55.6117 251.539 57.1799C251.516 58.4299 252.005 59.4867 253.005 60.3503C254.028 61.214 255.755 61.9071 258.187 62.4299L267.664 64.339C277.732 66.4071 282.778 71.1344 282.801 78.5208C282.801 81.9526 281.789 84.964 279.766 87.5549C277.766 90.1458 275.016 92.1685 271.516 93.623C268.016 95.0549 264.005 95.7708 259.482 95.7708C252.551 95.7708 247.028 94.3276 242.914 91.4412C238.801 88.5321 236.403 84.5776 235.721 79.5776L250.005 78.8276C250.46 80.964 251.505 82.5776 253.141 83.6685C254.801 84.7594 256.926 85.3049 259.516 85.3049C262.062 85.3049 264.107 84.8049 265.653 83.8049C267.221 82.8049 268.016 81.5321 268.039 79.9867C267.971 77.3958 265.732 75.6571 261.323 74.7708L252.255 72.964C242.119 70.9412 237.073 65.9526 237.119 57.998C237.096 52.9526 239.107 48.9753 243.153 46.0662C247.221 43.1571 252.607 41.7026 259.312 41.7026C265.926 41.7026 271.13 43.1003 274.926 45.8958C278.744 48.6912 280.971 52.498 281.607 57.3162Z" fill="black"/>
<path d="M6.79545 94.748H0.795455V100.748H6.79545V94.748ZM6.79545 42.3844V36.3844H0.795455V42.3844H6.79545ZM20.875 42.3844H26.875V36.3844H20.875V42.3844ZM20.875 51.5208H14.875V57.5208H20.875V51.5208ZM21.4205 51.5208V57.5208H25.9117L27.1773 53.2116L21.4205 51.5208ZM26.2273 44.1571L29.7881 48.9863L29.8039 48.9747L29.8195 48.963L26.2273 44.1571ZM38.5682 42.1458H44.5682V37.4066L39.9579 36.3089L38.5682 42.1458ZM38.5682 55.0321L36.6708 60.7242L44.5682 63.3567V55.0321H38.5682ZM35.7386 54.4867L34.953 60.435L35.0083 60.4423L35.0637 60.4486L35.7386 54.4867ZM24.4545 57.2821L28.6019 61.618L28.6029 61.617L24.4545 57.2821ZM21.3182 94.748V100.748H27.3182V94.748H21.3182ZM12.7955 94.748V42.3844H0.795455V94.748H12.7955ZM6.79545 48.3844H20.875V36.3844H6.79545V48.3844ZM14.875 42.3844V51.5208H26.875V42.3844H14.875ZM20.875 57.5208H21.4205V45.5208H20.875V57.5208ZM27.1773 53.2116C27.8427 50.9461 28.8018 49.7136 29.7881 48.9863L22.6664 39.328C19.1528 41.9189 16.9073 45.5955 15.6636 49.83L27.1773 53.2116ZM29.8195 48.963C30.9849 48.0919 32.3025 47.6344 34 47.6344V35.6344C29.8338 35.6344 25.9697 36.8588 22.635 39.3513L29.8195 48.963ZM34 47.6344C35.1901 47.6344 36.2432 47.7599 37.1785 47.9826L39.9579 36.3089C38.0295 35.8498 36.0372 35.6344 34 35.6344V47.6344ZM32.5682 42.1458V55.0321H44.5682V42.1458H32.5682ZM40.4655 49.34C39.2084 48.921 37.7923 48.6808 36.4136 48.5248L35.0637 60.4486C36.0941 60.5652 36.5643 60.6887 36.6708 60.7242L40.4655 49.34ZM36.5243 48.5383C35.1124 48.3519 33.7432 48.248 32.4318 48.248V60.248C33.1204 60.248 33.9557 60.3033 34.953 60.435L36.5243 48.5383ZM32.4318 48.248C27.8426 48.248 23.6477 49.7495 20.3062 52.9473L28.6029 61.617C29.4887 60.7693 30.6119 60.248 32.4318 60.248V48.248ZM20.3072 52.9463C16.8905 56.2145 15.3182 60.4665 15.3182 65.123H27.3182C27.3182 63.3251 27.8368 62.3498 28.6019 61.618L20.3072 52.9463ZM15.3182 65.123V94.748H27.3182V65.123H15.3182ZM21.3182 88.748H6.79545V100.748H21.3182V88.748ZM46.9078 92.498L43.9475 97.7169L43.959 97.7234L43.9706 97.7299L46.9078 92.498ZM37.9419 83.1571L32.6118 85.9121L32.6181 85.9243L37.9419 83.1571ZM37.9419 54.623L32.6055 51.8803L37.9419 54.623ZM46.7715 45.1117L43.7026 39.9559L43.6958 39.96L43.689 39.964L46.7715 45.1117ZM72.6806 44.6344L69.8807 49.9411L69.8874 49.9446L69.8941 49.9481L72.6806 44.6344ZM81.5442 53.498L76.2907 56.3965L76.2943 56.4029L76.2978 56.4093L81.5442 53.498ZM84.8169 72.2821V78.2821H90.8169V72.2821H84.8169ZM49.1578 72.2821V66.2821H43.1578V72.2821H49.1578ZM52.3624 81.5549L48.0113 85.6862L48.0113 85.6862L52.3624 81.5549ZM67.3283 83.3958L64.33 78.1987H64.33L67.3283 83.3958ZM71.0783 78.8617L71.4734 72.8747L66.9789 72.5781L65.4395 76.8112L71.0783 78.8617ZM84.5101 79.748L90.3817 80.9827L91.8045 74.2164L84.9052 73.7611L84.5101 79.748ZM76.7374 91.4071L80.1764 96.3238L76.7374 91.4071ZM49.1578 63.2821L43.1664 62.962L42.8287 69.2821H49.1578V63.2821ZM71.1465 63.2821V69.2821H77.1904L77.1463 63.2383L71.1465 63.2821ZM68.1465 55.5776L63.8559 59.7717L68.1465 55.5776ZM52.4987 55.6799L48.233 51.4605L48.233 51.4605L52.4987 55.6799ZM60.7828 89.7708C56.2391 89.7708 52.6684 88.8512 49.8451 87.2661L43.9706 97.7299C48.92 100.509 54.5993 101.771 60.7828 101.771V89.7708ZM49.8682 87.2792C47.0055 85.6553 44.8305 83.4004 43.2657 80.39L32.6181 85.9243C35.2352 90.9593 39.0375 94.9317 43.9475 97.7169L49.8682 87.2792ZM43.2721 80.4022C41.7054 77.3711 40.8056 73.5706 40.8056 68.8049H28.8056C28.8056 75.0845 29.9966 80.8523 32.6118 85.912L43.2721 80.4022ZM40.8056 68.8049C40.8056 64.2035 41.6947 60.447 43.2784 57.3658L32.6055 51.8803C30.0073 56.9355 28.8056 62.6335 28.8056 68.8049H40.8056ZM43.2784 57.3658C44.8755 54.2584 47.0533 51.9364 49.8539 50.2594L43.689 39.964C38.8987 42.8325 35.1902 46.8514 32.6055 51.8803L43.2784 57.3658ZM49.8404 50.2674C52.5935 48.6287 55.9762 47.7026 60.2033 47.7026V35.7026C54.1577 35.7026 48.5858 37.0493 43.7026 39.9559L49.8404 50.2674ZM60.2033 47.7026C63.9421 47.7026 67.1243 48.4868 69.8807 49.9411L75.4804 39.3277C70.8278 36.873 65.6918 35.7026 60.2033 35.7026V47.7026ZM69.8941 49.9481C72.5032 51.3163 74.6333 53.3925 76.2907 56.3965L86.7977 50.5996C84.0914 45.6945 80.3125 41.8616 75.467 39.3207L69.8941 49.9481ZM76.2978 56.4093C77.8524 59.2109 78.8169 63.0659 78.8169 68.2935H90.8169C90.8169 61.6575 89.5996 55.6489 86.7906 50.5868L76.2978 56.4093ZM78.8169 68.2935V72.2821H90.8169V68.2935H78.8169ZM84.8169 66.2821H49.1578V78.2821H84.8169V66.2821ZM43.1578 72.2821V72.3162H55.1578V72.2821H43.1578ZM43.1578 72.3162C43.1578 77.3452 44.5599 82.0513 48.0113 85.6862L56.7135 77.4235C55.8921 76.5585 55.1578 75.1055 55.1578 72.3162H43.1578ZM48.0113 85.6862C51.4762 89.3354 56.0476 90.9299 61.0215 90.9299V78.9299C58.7227 78.9299 57.5213 78.2743 56.7135 77.4235L48.0113 85.6862ZM61.0215 90.9299C64.3069 90.9299 67.4841 90.2328 70.3266 88.5929L64.33 78.1987C63.627 78.6042 62.5996 78.9299 61.0215 78.9299V90.9299ZM70.3266 88.5929C73.3743 86.8346 75.5282 84.1815 76.7171 80.9121L65.4395 76.8112C65.1739 77.5418 64.8278 77.9115 64.33 78.1987L70.3266 88.5929ZM70.6832 84.8487L84.115 85.735L84.9052 73.7611L71.4734 72.8747L70.6832 84.8487ZM78.6385 78.5134C77.9368 81.8504 76.2378 84.4345 73.2984 86.4905L80.1764 96.3238C85.5552 92.5616 89.038 87.3729 90.3817 80.9827L78.6385 78.5134ZM73.2984 86.4905C70.3941 88.5219 66.3696 89.7708 60.7828 89.7708V101.771C68.1506 101.771 74.7625 100.111 80.1764 96.3238L73.2984 86.4905ZM49.1578 69.2821H71.1465V57.2821H49.1578V69.2821ZM77.1463 63.2383C77.1135 58.7431 75.6135 54.6329 72.437 51.3834L63.8559 59.7717C64.634 60.5678 65.134 61.5939 65.1466 63.3259L77.1463 63.2383ZM72.437 51.3834C69.1939 48.0657 65.0088 46.5435 60.4419 46.5435V58.5435C62.1932 58.5435 63.1445 59.044 63.8559 59.7717L72.437 51.3834ZM60.4419 46.5435C55.7838 46.5435 51.5436 48.1135 48.233 51.4605L56.7645 59.8993C57.5903 59.0644 58.6455 58.5435 60.4419 58.5435V46.5435ZM48.233 51.4605C45.1159 54.6118 43.4027 58.5398 43.1664 62.962L55.1493 63.6023C55.2312 62.0699 55.7452 60.9298 56.7645 59.8993L48.233 51.4605ZM87.8469 94.748H81.8469V100.748H87.8469V94.748ZM87.8469 24.9299V18.9299H81.8469V24.9299H87.8469ZM102.37 24.9299H108.37V18.9299H102.37V24.9299ZM102.37 51.1799H96.3697V57.1799H102.37V51.1799ZM102.813 51.1799V57.1799H106.656L108.263 53.6887L102.813 51.1799ZM105.608 46.8503L100.987 43.0234V43.0234L105.608 46.8503ZM110.381 43.2026L113.04 48.5815L113.064 48.5692L113.089 48.5568L110.381 43.2026ZM128.279 44.7026L125.102 49.7926L125.115 49.8007L125.128 49.8088L128.279 44.7026ZM135.983 53.6685L130.58 56.2779L130.589 56.2964L130.598 56.3148L135.983 53.6685ZM136.086 83.4299L141.512 85.9891L141.518 85.9773L136.086 83.4299ZM128.449 92.5321L131.677 97.5897L131.69 97.5816L131.703 97.5734L128.449 92.5321ZM110.483 94.2026L107.901 99.6186L107.913 99.6244L107.926 99.6301L110.483 94.2026ZM105.676 90.6912L101.121 94.596L101.154 94.6347L101.188 94.6729L105.676 90.6912ZM102.813 86.3617L108.246 83.8151L106.627 80.3617H102.813V86.3617ZM102.165 86.3617V80.3617H96.1651V86.3617H102.165ZM102.165 94.748V100.748H108.165V94.748H102.165ZM104.926 79.8162L99.9465 83.1628L99.9619 83.1858L99.9776 83.2086L104.926 79.8162ZM121.256 79.748L126.267 83.0487L126.273 83.0396L126.279 83.0305L121.256 79.748ZM121.256 57.5208L116.239 60.8118L116.254 60.8351L116.27 60.8582L121.256 57.5208ZM104.926 57.4185L109.855 60.8401L109.862 60.8306L109.868 60.8211L104.926 57.4185ZM93.8469 94.748V24.9299H81.8469V94.748H93.8469ZM87.8469 30.9299H102.37V18.9299H87.8469V30.9299ZM96.3697 24.9299V51.1799H108.37V24.9299H96.3697ZM102.37 57.1799H102.813V45.1799H102.37V57.1799ZM108.263 53.6887C108.666 52.813 109.294 51.8069 110.229 50.6772L100.987 43.0234C99.5136 44.8028 98.2776 46.6831 97.3626 48.671L108.263 53.6887ZM110.229 50.6772C110.813 49.9721 111.693 49.2472 113.04 48.5815L107.722 37.8237C105.115 39.1125 102.812 40.8194 100.987 43.0234L110.229 50.6772ZM113.089 48.5568C114.006 48.093 115.459 47.7026 117.711 47.7026V35.7026C114.144 35.7026 110.711 36.3122 107.673 37.8484L113.089 48.5568ZM117.711 47.7026C120.448 47.7026 122.867 48.3978 125.102 49.7926L131.455 39.6126C127.281 37.0074 122.655 35.7026 117.711 35.7026V47.7026ZM125.128 49.8088C127.196 51.0845 129.055 53.1198 130.58 56.2779L141.386 51.0592C139.048 46.2172 135.771 42.2752 131.429 39.5964L125.128 49.8088ZM130.598 56.3148C132.031 59.2305 132.915 63.2435 132.915 68.6344H144.915C144.915 62.0253 143.844 56.061 141.368 51.0222L130.598 56.3148ZM132.915 68.6344C132.915 73.8598 132.068 77.8663 130.653 80.8825L141.518 85.9773C143.876 80.9479 144.915 75.0908 144.915 68.6344H132.915ZM130.659 80.8706C129.173 84.0213 127.316 86.1225 125.196 87.4909L131.703 97.5734C135.992 94.8054 139.225 90.8384 141.512 85.9891L130.659 80.8706ZM125.221 87.4746C123.026 88.8754 120.565 89.6003 117.676 89.6003V101.6C122.742 101.6 127.463 100.28 131.677 97.5897L125.221 87.4746ZM117.676 89.6003C115.496 89.6003 114.022 89.2373 113.041 88.7751L107.926 99.6301C110.899 101.031 114.22 101.6 117.676 101.6V89.6003ZM113.065 88.7866C111.728 88.1492 110.808 87.4346 110.165 86.7095L101.188 94.6729C103.045 96.7661 105.329 98.3924 107.901 99.6186L113.065 88.7866ZM110.232 86.7865C109.298 85.6964 108.662 84.7031 108.246 83.8151L97.3801 88.9083C98.3275 90.9294 99.6008 92.8224 101.121 94.596L110.232 86.7865ZM102.813 80.3617H102.165V92.3617H102.813V80.3617ZM96.1651 86.3617V94.748H108.165V86.3617H96.1651ZM102.165 88.748H87.8469V100.748H102.165V88.748ZM96.0628 68.5662C96.0628 73.9981 97.1718 79.0339 99.9465 83.1628L109.906 76.4697C108.863 74.9168 108.063 72.4525 108.063 68.5662H96.0628ZM99.9776 83.2086C103.06 87.7059 107.653 90.0435 113.074 90.0435V78.0435C111.495 78.0435 110.656 77.5629 109.875 76.4238L99.9776 83.2086ZM113.074 90.0435C118.562 90.0435 123.217 87.6778 126.267 83.0487L116.245 76.4474C115.522 77.5455 114.723 78.0435 113.074 78.0435V90.0435ZM126.279 83.0305C128.979 78.898 130.086 73.929 130.086 68.5662H118.086C118.086 72.3398 117.305 74.8254 116.234 76.4656L126.279 83.0305ZM130.086 68.5662C130.086 63.2283 128.98 58.2734 126.242 54.1833L116.27 60.8582C117.305 62.4045 118.086 64.8133 118.086 68.5662H130.086ZM126.273 54.2297C123.227 49.5863 118.549 47.2594 113.074 47.2594V59.2594C114.781 59.2594 115.558 59.7735 116.239 60.8118L126.273 54.2297ZM113.074 47.2594C107.686 47.2594 103.074 49.5293 99.9846 54.0159L109.868 60.8211C110.597 59.7623 111.417 59.2594 113.074 59.2594V47.2594ZM99.9977 53.9969C97.1634 58.0796 96.0628 63.133 96.0628 68.5662H108.063C108.063 64.6358 108.871 62.2574 109.855 60.8401L99.9977 53.9969ZM144.374 91.8162L148.102 87.1152L144.374 91.8162ZM142.192 70.9185L137.568 67.096L142.192 70.9185ZM149.42 66.0435L151.369 71.718L151.381 71.7137L151.394 71.7093L149.42 66.0435ZM159.101 63.998L159.652 69.9728L159.675 69.9706L159.698 69.9683L159.101 63.998ZM169.738 54.0776L165.771 58.5788L165.789 58.5954L165.808 58.6117L169.738 54.0776ZM157.772 54.0094L161.326 58.8433L157.772 54.0094ZM154.704 58.339L154.218 64.3193L159.121 64.7175L160.473 59.9873L154.704 58.339ZM141.272 57.248L135.399 56.0176L134.004 62.6775L140.786 63.2284L141.272 57.248ZM148.704 45.8958L145.253 40.987L145.247 40.9916L145.24 40.9963L148.704 45.8958ZM174.988 43.5435L172.943 49.1845V49.1845L174.988 43.5435ZM183.17 49.3049L178.464 53.028L178.482 53.0506L178.5 53.073L183.17 49.3049ZM186.306 94.748V100.748H192.306V94.748H186.306ZM172.533 94.748H166.533V100.748H172.533V94.748ZM172.533 87.4867H178.533V81.4867H172.533V87.4867ZM172.124 87.4867V81.4867H168.492L166.808 84.7045L172.124 87.4867ZM166.397 93.4526L169.497 98.5894L169.504 98.5854L169.511 98.5813L166.397 93.4526ZM168.817 82.9526L172.831 87.4124L172.845 87.4001L172.858 87.3878L168.817 82.9526ZM171.885 70.4753H177.885V59.1395L168.512 65.5138L171.885 70.4753ZM169.226 71.498L167.797 65.6708L167.784 65.674L167.771 65.6772L169.226 71.498ZM165.408 72.2821L166.313 78.2135L166.354 78.2073L166.395 78.2005L165.408 72.2821ZM161.795 72.8276L162.643 78.7673L162.661 78.7648L162.678 78.7621L161.795 72.8276ZM155.624 74.9753L152.246 70.0164L152.229 70.0279L152.213 70.0396L155.624 74.9753ZM155.454 84.1799L151.966 89.0623L151.984 89.0752L152.003 89.088L155.454 84.1799ZM156.817 89.7367C152.906 89.7367 150.146 88.7364 148.102 87.1152L140.646 96.5172C145.193 100.123 150.729 101.737 156.817 101.737V89.7367ZM148.102 87.1152C146.573 85.9023 145.431 83.9421 145.431 80.123H133.431C133.431 86.6676 135.584 92.5029 140.646 96.5172L148.102 87.1152ZM145.431 80.123C145.431 77.1169 146.135 75.5662 146.817 74.741L137.568 67.096C134.568 70.7254 133.431 75.311 133.431 80.123H145.431ZM146.817 74.741C147.891 73.4413 149.34 72.4149 151.369 71.718L147.47 60.369C143.544 61.7175 140.175 63.9411 137.568 67.096L146.817 74.741ZM151.394 71.7093C153.894 70.8383 156.639 70.2503 159.652 69.9728L158.551 58.0233C154.655 58.3822 150.946 59.1578 147.445 60.3777L151.394 71.7093ZM159.698 69.9683C164.265 69.5116 167.908 69.0007 170.338 68.379L167.364 56.7534C165.885 57.1318 163.028 57.5754 158.504 58.0278L159.698 69.9683ZM170.338 68.379C172.046 67.9423 173.99 67.0833 175.519 65.3765C177.139 63.5681 177.783 61.3781 177.783 59.2935H165.783C165.783 59.1311 165.807 58.8288 165.941 58.4496C166.079 58.0578 166.299 57.6843 166.581 57.3696C167.133 56.7537 167.612 56.6902 167.364 56.7534L170.338 68.379ZM177.783 59.2935V59.089H165.783V59.2935H177.783ZM177.783 59.089C177.783 55.5648 176.605 52.0895 173.667 49.5435L165.808 58.6117C165.804 58.6083 165.782 58.588 165.757 58.5522C165.731 58.5164 165.719 58.4892 165.717 58.4842C165.712 58.4729 165.783 58.6373 165.783 59.089H177.783ZM173.705 49.5763C170.908 47.1116 167.385 46.3049 164.01 46.3049V58.3049C165.591 58.3049 165.885 58.6799 165.771 58.5788L173.705 49.5763ZM164.01 46.3049C160.574 46.3049 157.108 47.0501 154.217 49.1755L161.326 58.8433C161.526 58.696 162.22 58.3049 164.01 58.3049V46.3049ZM154.217 49.1755C151.663 51.0536 149.82 53.5908 148.934 56.6906L160.473 59.9873C160.587 59.5872 160.789 59.238 161.326 58.8433L154.217 49.1755ZM155.189 52.3586L141.758 51.2677L140.786 63.2284L154.218 64.3193L155.189 52.3586ZM147.144 58.4785C147.836 55.1777 149.46 52.7091 152.167 50.7952L145.24 40.9963C140.039 44.6733 136.708 49.7729 135.399 56.0176L147.144 58.4785ZM152.154 50.8046C154.863 48.9003 158.683 47.7026 164.079 47.7026V35.7026C156.928 35.7026 150.499 37.3004 145.253 40.987L152.154 50.8046ZM164.079 47.7026C167.323 47.7026 170.262 48.2128 172.943 49.1845L177.032 37.9025C172.94 36.4196 168.607 35.7026 164.079 35.7026V47.7026ZM172.943 49.1845C175.37 50.0638 177.144 51.3588 178.464 53.028L187.875 45.5817C185.059 42.0236 181.378 39.4777 177.032 37.9025L172.943 49.1845ZM178.5 53.073C179.533 54.3529 180.306 56.2919 180.306 59.4299H192.306C192.306 54.2497 190.988 49.4386 187.839 45.5368L178.5 53.073ZM180.306 59.4299V94.748H192.306V59.4299H180.306ZM186.306 88.748H172.533V100.748H186.306V88.748ZM178.533 94.748V87.4867H166.533V94.748H178.533ZM172.533 81.4867H172.124V93.4867H172.533V81.4867ZM166.808 84.7045C166.085 86.0865 164.977 87.2956 163.283 88.3239L169.511 98.5813C172.908 96.5187 175.618 93.7505 177.44 90.2689L166.808 84.7045ZM163.296 88.3158C161.958 89.1239 159.92 89.7367 156.817 89.7367V101.737C161.442 101.737 165.791 100.827 169.497 98.5894L163.296 88.3158ZM160.976 91.714C165.394 91.714 169.513 90.3984 172.831 87.4124L164.803 78.4928C164.03 79.1886 162.923 79.714 160.976 79.714V91.714ZM172.858 87.3878C176.143 84.3953 177.885 80.4823 177.885 76.0321H165.885C165.885 77.082 165.583 77.7826 164.776 78.5174L172.858 87.3878ZM177.885 76.0321V70.4753H165.885V76.0321H177.885ZM168.512 65.5138C168.626 65.4359 168.701 65.3976 168.716 65.39C168.733 65.3817 168.711 65.3936 168.641 65.4207C168.493 65.4776 168.223 65.5663 167.797 65.6708L170.656 77.3253C172.089 76.9739 173.802 76.4277 175.259 75.4369L168.512 65.5138ZM167.771 65.6772C166.763 65.9292 165.648 66.1593 164.422 66.3638L166.395 78.2005C167.895 77.9504 169.326 77.6578 170.682 77.3189L167.771 65.6772ZM164.503 66.3507C163.168 66.5545 161.97 66.7352 160.911 66.8931L162.678 78.7621C163.755 78.6018 164.967 78.4189 166.313 78.2135L164.503 66.3507ZM160.946 66.8879C157.799 67.3374 154.791 68.283 152.246 70.0164L159.002 79.9342C159.593 79.5313 160.699 79.0451 162.643 78.7673L160.946 66.8879ZM152.213 70.0396C148.884 72.3401 147.306 75.8354 147.306 79.6458H159.306C159.306 79.5116 159.319 79.4559 159.317 79.4617C159.315 79.4707 159.302 79.5275 159.26 79.6116C159.217 79.6973 159.163 79.7765 159.107 79.8397C159.053 79.9012 159.02 79.9219 159.036 79.9111L152.213 70.0396ZM147.306 79.6458C147.306 83.2781 148.724 86.7467 151.966 89.0623L158.941 79.2975C158.963 79.3128 159.021 79.3588 159.091 79.4419C159.163 79.5262 159.222 79.6201 159.265 79.7108C159.355 79.9 159.306 79.9292 159.306 79.6458H147.306ZM152.003 89.088C154.697 90.9828 157.828 91.714 160.976 91.714V79.714C159.67 79.714 159.119 79.4224 158.905 79.2717L152.003 89.088ZM234.421 57.3162L234.79 63.3049L241.212 62.9097L240.369 56.5306L234.421 57.3162ZM221.126 58.1344L215.261 59.4024L216.35 64.4396L221.494 64.1231L221.126 58.1344ZM218.364 53.8049L222.156 49.1548L218.364 53.8049ZM206.637 53.4299L209.735 58.5681L209.746 58.5616L209.757 58.5551L206.637 53.4299ZM204.353 57.1799L210.352 57.2889L210.354 57.1909L210.352 57.0929L204.353 57.1799ZM205.819 60.3503L201.897 64.8913L201.922 64.913L201.948 64.9345L205.819 60.3503ZM211.001 62.4299L209.74 68.2959L209.778 68.304L209.816 68.3117L211.001 62.4299ZM220.478 64.339L221.685 58.4617L221.674 58.4594L221.663 58.4571L220.478 64.339ZM235.614 78.5208H241.614V78.5115L241.614 78.5023L235.614 78.5208ZM232.58 87.5549L227.851 83.8626L227.841 83.8756L227.831 83.8885L232.58 87.5549ZM224.33 93.623L226.602 99.1763L226.617 99.17L226.633 99.1636L224.33 93.623ZM195.728 91.4412L192.264 96.34L192.273 96.3464L192.282 96.3528L195.728 91.4412ZM188.535 79.5776L188.22 73.5858L181.709 73.9277L182.59 80.3883L188.535 79.5776ZM202.819 78.8276L208.688 77.5789L207.621 72.5672L202.504 72.8358L202.819 78.8276ZM205.955 83.6685L202.627 88.6608L202.643 88.6714L202.659 88.6818L205.955 83.6685ZM218.467 83.8049L215.241 78.7459L215.224 78.7566L215.207 78.7674L218.467 83.8049ZM220.853 79.9867L226.852 80.0749L226.854 79.9519L226.851 79.8288L220.853 79.9867ZM214.137 74.7708L215.32 68.8885L215.309 68.8864L214.137 74.7708ZM205.069 72.964L203.895 78.8479L203.896 78.8483L205.069 72.964ZM189.932 57.998L195.932 58.0323L195.933 58.0017L195.932 57.971L189.932 57.998ZM195.967 46.0662L192.477 41.1857L192.47 41.1903L192.464 41.1949L195.967 46.0662ZM227.739 45.8958L224.181 50.7268L224.188 50.7319L224.195 50.7369L227.739 45.8958ZM234.053 51.3276L220.757 52.1457L221.494 64.1231L234.79 63.3049L234.053 51.3276ZM226.99 56.8664C226.308 53.7103 224.567 51.1207 222.156 49.1548L214.573 58.455C215.116 58.8981 215.216 59.1949 215.261 59.4024L226.99 56.8664ZM222.156 49.1548C219.305 46.8299 215.819 45.998 212.364 45.998V57.998C213.955 57.998 214.469 58.3707 214.573 58.455L222.156 49.1548ZM212.364 45.998C209.262 45.998 206.217 46.6614 203.517 48.3047L209.757 58.5551C210.193 58.2892 210.967 57.998 212.364 57.998V45.998ZM203.539 48.2916C200.495 50.1271 198.295 53.207 198.354 57.2668L210.352 57.0929C210.354 57.2019 210.342 57.3736 210.287 57.5846C210.231 57.7985 210.142 58.0048 210.031 58.1874C209.805 58.5588 209.601 58.6493 209.735 58.5681L203.539 48.2916ZM198.354 57.0708C198.297 60.2152 199.636 62.9388 201.897 64.8913L209.741 55.8094C209.8 55.8604 209.989 56.0471 210.148 56.3919C210.312 56.746 210.356 57.0759 210.352 57.2889L198.354 57.0708ZM201.948 64.9345C204.123 66.7712 207.039 67.7154 209.74 68.2959L212.262 56.5639C211.275 56.3518 210.579 56.1355 210.116 55.9496C209.633 55.7557 209.562 55.6583 209.69 55.7661L201.948 64.9345ZM209.816 68.3117L219.293 70.2208L221.663 58.4571L212.186 56.548L209.816 68.3117ZM219.271 70.2162C223.713 71.1288 226.298 72.4904 227.711 73.814C228.938 74.9642 229.608 76.3725 229.614 78.5392L241.614 78.5023C241.598 73.2827 239.733 68.6342 235.916 65.0571C232.283 61.6534 227.311 59.6173 221.685 58.4617L219.271 70.2162ZM229.614 78.5208C229.614 80.678 229.012 82.3753 227.851 83.8626L237.31 91.2471C240.194 87.5526 241.614 83.2271 241.614 78.5208H229.614ZM227.831 83.8885C226.564 85.5295 224.717 86.9649 222.028 88.0825L226.633 99.1636C230.944 97.3721 234.596 94.7621 237.33 91.2212L227.831 83.8885ZM222.058 88.0698C219.406 89.1548 216.189 89.7708 212.296 89.7708V101.771C217.448 101.771 222.254 100.955 226.602 99.1763L222.058 88.0698ZM212.296 89.7708C206.142 89.7708 201.96 88.4846 199.174 86.5297L192.282 96.3528C197.723 100.171 204.587 101.771 212.296 101.771V89.7708ZM199.192 86.5424C196.439 84.5952 194.937 82.1223 194.48 78.7669L182.59 80.3883C183.496 87.0329 186.79 92.4691 192.264 96.34L199.192 86.5424ZM188.849 85.5693L203.133 84.8193L202.504 72.8358L188.22 73.5858L188.849 85.5693ZM196.95 80.0762C197.691 83.5593 199.539 86.6018 202.627 88.6608L209.283 78.6762C209.099 78.5534 208.856 78.3686 208.688 77.5789L196.95 80.0762ZM202.659 88.6818C205.555 90.5859 208.92 91.3049 212.33 91.3049V79.3049C210.559 79.3049 209.674 78.9329 209.252 78.6552L202.659 88.6818ZM212.33 91.3049C215.605 91.3049 218.904 90.6681 221.726 88.8423L215.207 78.7674C214.938 78.9416 214.146 79.3049 212.33 79.3049V91.3049ZM221.693 88.8638C224.564 87.0326 226.794 84.0687 226.852 80.0749L214.854 79.8985C214.855 79.777 214.874 79.6115 214.929 79.4218C214.984 79.2309 215.064 79.0602 215.151 78.9203C215.326 78.6407 215.448 78.6138 215.241 78.7459L221.693 88.8638ZM226.851 79.8288C226.765 76.5533 225.191 73.8553 222.803 72.0008C220.644 70.3242 217.956 69.4185 215.32 68.8885L212.955 80.6531C213.793 80.8217 214.405 81.0069 214.833 81.176C215.266 81.3468 215.432 81.47 215.443 81.4782C215.443 81.4788 215.399 81.4444 215.332 81.3671C215.263 81.2881 215.179 81.1741 215.1 81.0247C214.926 80.6981 214.861 80.373 214.855 80.1445L226.851 79.8288ZM215.309 68.8864L206.241 67.0796L203.896 78.8483L212.965 80.6551L215.309 68.8864ZM206.243 67.08C201.828 66.1989 199.289 64.8112 197.901 63.4388C196.671 62.2224 195.918 60.6092 195.932 58.0323L183.933 57.9638C183.902 63.3415 185.649 68.1998 189.464 71.972C193.121 75.5882 198.174 77.7063 203.895 78.8479L206.243 67.08ZM195.932 57.971C195.918 54.837 197.023 52.6968 199.47 50.9375L192.464 41.1949C186.819 45.2538 183.901 51.0682 183.933 58.0251L195.932 57.971ZM199.457 50.9468C202.211 48.977 206.253 47.7026 212.126 47.7026V35.7026C204.59 35.7026 197.858 37.3373 192.477 41.1857L199.457 50.9468ZM212.126 47.7026C217.961 47.7026 221.758 48.9424 224.181 50.7268L231.298 41.0647C226.129 37.2582 219.518 35.7026 212.126 35.7026V47.7026ZM224.195 50.7369C226.652 52.5361 228.044 54.8574 228.473 58.1019L240.369 56.5306C239.525 50.1386 236.463 44.8464 231.284 41.0546L224.195 50.7369ZM281.607 57.3162L281.976 63.3049L288.398 62.9097L287.556 56.5306L281.607 57.3162ZM268.312 58.1344L262.447 59.4024L263.537 64.4396L268.68 64.1231L268.312 58.1344ZM265.551 53.8049L269.342 49.1548L265.551 53.8049ZM253.823 53.4299L256.921 58.5681L256.932 58.5616L256.943 58.5551L253.823 53.4299ZM251.539 57.1799L257.538 57.2889L257.54 57.1909L257.539 57.0929L251.539 57.1799ZM253.005 60.3503L249.083 64.8913L249.109 64.913L249.134 64.9345L253.005 60.3503ZM258.187 62.4299L256.926 68.2959L256.964 68.304L257.002 68.3117L258.187 62.4299ZM267.664 64.339L268.871 58.4617L268.86 58.4594L268.849 58.4571L267.664 64.339ZM282.801 78.5208H288.801V78.5115L288.801 78.5023L282.801 78.5208ZM279.766 87.5549L275.037 83.8626L275.027 83.8756L275.017 83.8885L279.766 87.5549ZM271.516 93.623L273.788 99.1763L273.804 99.17L273.819 99.1636L271.516 93.623ZM242.914 91.4412L239.45 96.34L239.459 96.3464L239.468 96.3528L242.914 91.4412ZM235.721 79.5776L235.406 73.5858L228.895 73.9277L229.776 80.3883L235.721 79.5776ZM250.005 78.8276L255.874 77.5789L254.807 72.5672L249.691 72.8358L250.005 78.8276ZM253.141 83.6685L249.813 88.6608L249.829 88.6714L249.845 88.6818L253.141 83.6685ZM265.653 83.8049L262.427 78.7459L262.41 78.7566L262.393 78.7674L265.653 83.8049ZM268.039 79.9867L274.039 80.0749L274.04 79.9519L274.037 79.8288L268.039 79.9867ZM261.323 74.7708L262.506 68.8885L262.496 68.8864L261.323 74.7708ZM252.255 72.964L251.081 78.8479L251.083 78.8483L252.255 72.964ZM237.119 57.998L243.119 58.0323L243.119 58.0017L243.119 57.971L237.119 57.998ZM243.153 46.0662L239.663 41.1857L239.656 41.1903L239.65 41.1949L243.153 46.0662ZM274.926 45.8958L271.367 50.7268L271.374 50.7319L271.381 50.7369L274.926 45.8958ZM281.239 51.3276L267.943 52.1457L268.68 64.1231L281.976 63.3049L281.239 51.3276ZM274.176 56.8664C273.494 53.7103 271.753 51.1207 269.342 49.1548L261.759 58.455C262.302 58.8981 262.403 59.1949 262.447 59.4024L274.176 56.8664ZM269.342 49.1548C266.491 46.8299 263.005 45.998 259.551 45.998V57.998C261.141 57.998 261.656 58.3707 261.759 58.455L269.342 49.1548ZM259.551 45.998C256.448 45.998 253.403 46.6614 250.704 48.3047L256.943 58.5551C257.38 58.2892 258.153 57.998 259.551 57.998V45.998ZM250.725 48.2916C247.681 50.1271 245.481 53.207 245.54 57.2668L257.539 57.0929C257.54 57.2019 257.528 57.3736 257.473 57.5846C257.417 57.7985 257.329 58.0048 257.217 58.1874C256.991 58.5588 256.787 58.6493 256.921 58.5681L250.725 48.2916ZM245.54 57.0708C245.483 60.2152 246.823 62.9388 249.083 64.8913L256.927 55.8094C256.986 55.8604 257.175 56.0471 257.335 56.3919C257.498 56.746 257.542 57.0759 257.538 57.2889L245.54 57.0708ZM249.134 64.9345C251.309 66.7712 254.225 67.7154 256.926 68.2959L259.448 56.5639C258.461 56.3518 257.766 56.1355 257.302 55.9496C256.819 55.7557 256.748 55.6583 256.876 55.7661L249.134 64.9345ZM257.002 68.3117L266.479 70.2208L268.849 58.4571L259.372 56.548L257.002 68.3117ZM266.457 70.2162C270.899 71.1288 273.484 72.4904 274.897 73.814C276.125 74.9642 276.794 76.3725 276.801 78.5392L288.801 78.5023C288.784 73.2827 286.92 68.6342 283.102 65.0571C279.469 61.6534 274.497 59.6173 268.871 58.4617L266.457 70.2162ZM276.801 78.5208C276.801 80.678 276.198 82.3753 275.037 83.8626L284.496 91.2471C287.38 87.5526 288.801 83.2271 288.801 78.5208H276.801ZM275.017 83.8885C273.75 85.5295 271.903 86.9649 269.214 88.0825L273.819 99.1636C278.13 97.3721 281.783 94.7621 284.516 91.2212L275.017 83.8885ZM269.245 88.0698C266.592 89.1548 263.375 89.7708 259.482 89.7708V101.771C264.635 101.771 269.441 100.955 273.788 99.1763L269.245 88.0698ZM259.482 89.7708C253.328 89.7708 249.147 88.4846 246.36 86.5297L239.468 96.3528C244.909 100.171 251.773 101.771 259.482 101.771V89.7708ZM246.379 86.5424C243.625 84.5952 242.124 82.1223 241.666 78.7669L229.776 80.3883C230.682 87.0329 233.976 92.4691 239.45 96.34L246.379 86.5424ZM236.036 85.5693L250.32 84.8193L249.691 72.8358L235.406 73.5858L236.036 85.5693ZM244.136 80.0762C244.878 83.5593 246.725 86.6018 249.813 88.6608L256.47 78.6762C256.285 78.5534 256.042 78.3686 255.874 77.5789L244.136 80.0762ZM249.845 88.6818C252.741 90.5859 256.106 91.3049 259.516 91.3049V79.3049C257.745 79.3049 256.86 78.9329 256.438 78.6552L249.845 88.6818ZM259.516 91.3049C262.791 91.3049 266.091 90.6681 268.912 88.8423L262.393 78.7674C262.124 78.9416 261.332 79.3049 259.516 79.3049V91.3049ZM268.879 88.8638C271.751 87.0326 273.98 84.0687 274.039 80.0749L262.04 79.8985C262.042 79.777 262.06 79.6115 262.115 79.4218C262.171 79.2309 262.25 79.0602 262.338 78.9203C262.512 78.6407 262.634 78.6138 262.427 78.7459L268.879 88.8638ZM274.037 79.8288C273.951 76.5533 272.377 73.8553 269.989 72.0008C267.831 70.3242 265.142 69.4185 262.506 68.8885L260.141 80.6531C260.979 80.8217 261.591 81.0069 262.02 81.176C262.452 81.3468 262.618 81.47 262.629 81.4782C262.629 81.4788 262.585 81.4444 262.518 81.3671C262.449 81.2881 262.365 81.1741 262.286 81.0247C262.112 80.6981 262.047 80.373 262.041 80.1445L274.037 79.8288ZM262.496 68.8864L253.428 67.0796L251.083 78.8483L260.151 80.6551L262.496 68.8864ZM253.429 67.08C249.014 66.1989 246.475 64.8112 245.087 63.4388C243.857 62.2224 243.104 60.6092 243.119 58.0323L231.119 57.9638C231.088 63.3415 232.835 68.1998 236.65 71.972C240.308 75.5882 245.36 77.7063 251.081 78.8479L253.429 67.08ZM243.119 57.971C243.105 54.837 244.209 52.6968 246.656 50.9375L239.65 41.1949C234.006 45.2538 231.087 51.0682 231.119 58.0251L243.119 57.971ZM246.643 50.9468C249.397 48.977 253.439 47.7026 259.312 47.7026V35.7026C251.776 35.7026 245.045 37.3373 239.663 41.1857L246.643 50.9468ZM259.312 47.7026C265.147 47.7026 268.945 48.9424 271.367 50.7268L278.484 41.0647C273.316 37.2582 266.704 35.7026 259.312 35.7026V47.7026ZM271.381 50.7369C273.839 52.5361 275.231 54.8574 275.659 58.1019L287.556 56.5306C286.712 50.1386 283.649 44.8464 278.47 41.0546L271.381 50.7369Z" fill="black"/>
<path d="M7.79545 93.916V41.5524H21.875V50.6887H22.4205C23.375 47.4387 24.9773 44.9842 27.2273 43.3251C29.4773 41.6433 32.0682 40.8024 35 40.8024C36.6136 40.8024 38.1364 40.9728 39.5682 41.3137V54.2001C38.8864 53.9728 37.9432 53.791 36.7386 53.6547C35.5341 53.4956 34.4318 53.416 33.4318 53.416C30.2273 53.416 27.5682 54.4274 25.4545 56.4501C23.3636 58.4501 22.3182 61.0637 22.3182 64.291V93.916H7.79545ZM61.7828 94.9387C56.4192 94.9387 51.7942 93.8478 47.9078 91.666C44.0215 89.4615 41.0328 86.3478 38.9419 82.3251C36.851 78.2797 35.8056 73.4956 35.8056 67.9728C35.8056 62.5865 36.851 57.8592 38.9419 53.791C41.0328 49.7228 43.976 46.5524 47.7715 44.2796C51.5897 42.0069 56.0669 40.8706 61.2033 40.8706C65.8169 40.8706 69.976 41.8478 73.6806 43.8024C77.4078 45.7569 80.3624 48.7115 82.5442 52.666C84.726 56.5978 85.8169 61.5297 85.8169 67.4615V71.4501H50.1578V71.4842C50.1578 75.3933 51.226 78.4728 53.3624 80.7228C55.4988 82.9728 58.3851 84.0978 62.0215 84.0978C64.4533 84.0978 66.5556 83.5865 68.3283 82.5637C70.101 81.541 71.351 80.0297 72.0783 78.0297L85.5101 78.916C84.4874 83.7797 81.8965 87.666 77.7374 90.5751C73.5783 93.4842 68.2601 94.9387 61.7828 94.9387ZM50.1578 62.4501H72.1465C72.1238 59.3365 71.1238 56.7683 69.1465 54.7456C67.1692 52.7228 64.601 51.7115 61.4419 51.7115C58.2147 51.7115 55.5669 52.7569 53.4988 54.8478C51.4306 56.9387 50.3169 59.4728 50.1578 62.4501ZM88.8469 93.916V24.0978H103.37V50.3478H103.813C104.472 48.916 105.404 47.4728 106.608 46.0183C107.813 44.5637 109.404 43.3478 111.381 42.3706C113.358 41.3706 115.801 40.8706 118.711 40.8706C122.551 40.8706 126.074 41.8706 129.279 43.8706C132.483 45.8478 135.051 48.8365 136.983 52.8365C138.938 56.8137 139.915 61.8024 139.915 67.8024C139.915 73.6433 138.972 78.5751 137.086 82.5978C135.199 86.5978 132.654 89.6319 129.449 91.7001C126.245 93.7456 122.654 94.7683 118.676 94.7683C115.858 94.7683 113.461 94.3024 111.483 93.3706C109.529 92.4387 107.926 91.2683 106.676 89.8592C105.449 88.4274 104.495 86.9842 103.813 85.5297H103.165V93.916H88.8469ZM103.063 67.7342C103.063 72.3933 104.017 76.1433 105.926 78.9842C107.858 81.8024 110.574 83.2115 114.074 83.2115C117.642 83.2115 120.37 81.7797 122.256 78.916C124.142 76.0297 125.086 72.3024 125.086 67.7342C125.086 63.1887 124.142 59.5069 122.256 56.6887C120.392 53.8478 117.665 52.4274 114.074 52.4274C110.551 52.4274 107.836 53.8137 105.926 56.5865C104.017 59.3365 103.063 63.0524 103.063 67.7342ZM157.817 94.9047C152.817 94.9047 148.67 93.5978 145.374 90.9842C142.079 88.3706 140.431 84.4728 140.431 79.291C140.431 75.3819 141.351 72.3137 143.192 70.0865C145.033 67.8592 147.442 66.2342 150.42 65.2115C153.42 64.166 156.647 63.4842 160.101 63.166C164.647 62.7115 167.897 62.2342 169.851 61.7342C171.806 61.2342 172.783 60.1433 172.783 58.4615V58.2569C172.783 56.0978 172.101 54.4274 170.738 53.2456C169.397 52.0637 167.488 51.4728 165.01 51.4728C162.397 51.4728 160.317 52.041 158.772 53.1774C157.226 54.3137 156.204 55.7569 155.704 57.5069L142.272 56.416C143.272 51.6433 145.749 47.8592 149.704 45.0637C153.681 42.2683 158.806 40.8706 165.079 40.8706C168.965 40.8706 172.601 41.4842 175.988 42.7115C179.374 43.9387 182.101 45.8592 184.17 48.4728C186.26 51.0637 187.306 54.4387 187.306 58.5978V93.916H173.533V86.6547H173.124C171.851 89.0865 169.942 91.0751 167.397 92.6206C164.874 94.1433 161.681 94.9047 157.817 94.9047ZM161.976 84.8819C165.158 84.8819 167.772 83.9615 169.817 82.1206C171.863 80.2569 172.885 77.9501 172.885 75.2001V69.6433C172.317 70.0297 171.431 70.3706 170.226 70.666C169.045 70.9615 167.772 71.2228 166.408 71.4501C165.067 71.6547 163.863 71.8365 162.795 71.9956C160.249 72.3592 158.192 73.0751 156.624 74.1433C155.079 75.2115 154.306 76.7683 154.306 78.8137C154.306 80.8137 155.022 82.3251 156.454 83.3478C157.908 84.3706 159.749 84.8819 161.976 84.8819ZM235.421 56.4842L222.126 57.3024C221.762 55.6206 220.842 54.1774 219.364 52.9728C217.887 51.7683 215.887 51.166 213.364 51.166C211.114 51.166 209.205 51.6433 207.637 52.5978C206.092 53.5296 205.33 54.7796 205.353 56.3478C205.33 57.5978 205.819 58.6547 206.819 59.5183C207.842 60.3819 209.569 61.0751 212.001 61.5978L221.478 63.5069C231.546 65.5751 236.592 70.3024 236.614 77.6887C236.614 81.1206 235.603 84.1319 233.58 86.7228C231.58 89.3137 228.83 91.3365 225.33 92.791C221.83 94.2228 217.819 94.9387 213.296 94.9387C206.364 94.9387 200.842 93.4956 196.728 90.6092C192.614 87.7001 190.217 83.7456 189.535 78.7456L203.819 77.9956C204.273 80.1319 205.319 81.7456 206.955 82.8365C208.614 83.9274 210.739 84.4728 213.33 84.4728C215.876 84.4728 217.921 83.9728 219.467 82.9728C221.035 81.9728 221.83 80.7001 221.853 79.1547C221.785 76.5637 219.546 74.8251 215.137 73.9387L206.069 72.1319C195.932 70.1092 190.887 65.1206 190.932 57.166C190.91 52.1206 192.921 48.1433 196.967 45.2342C201.035 42.3251 206.421 40.8706 213.126 40.8706C219.739 40.8706 224.944 42.2683 228.739 45.0637C232.557 47.8592 234.785 51.666 235.421 56.4842ZM282.607 56.4842L269.312 57.3024C268.948 55.6206 268.028 54.1774 266.551 52.9728C265.073 51.7683 263.073 51.166 260.551 51.166C258.301 51.166 256.391 51.6433 254.823 52.5978C253.278 53.5296 252.516 54.7796 252.539 56.3478C252.516 57.5978 253.005 58.6547 254.005 59.5183C255.028 60.3819 256.755 61.0751 259.187 61.5978L268.664 63.5069C278.732 65.5751 283.778 70.3024 283.801 77.6887C283.801 81.1206 282.789 84.1319 280.766 86.7228C278.766 89.3137 276.016 91.3365 272.516 92.791C269.016 94.2228 265.005 94.9387 260.482 94.9387C253.551 94.9387 248.028 93.4956 243.914 90.6092C239.801 87.7001 237.403 83.7456 236.721 78.7456L251.005 77.9956C251.46 80.1319 252.505 81.7456 254.141 82.8365C255.801 83.9274 257.926 84.4728 260.516 84.4728C263.062 84.4728 265.107 83.9728 266.653 82.9728C268.221 81.9728 269.016 80.7001 269.039 79.1547C268.971 76.5637 266.732 74.8251 262.323 73.9387L253.255 72.1319C243.119 70.1092 238.073 65.1206 238.119 57.166C238.096 52.1206 240.107 48.1433 244.153 45.2342C248.221 42.3251 253.607 40.8706 260.312 40.8706C266.926 40.8706 272.13 42.2683 275.926 45.0637C279.744 47.8592 281.971 51.666 282.607 56.4842Z" fill="white"/>
</svg>
