<svg width="286" height="74" viewBox="0 0 286 74" fill="none" xmlns="http://www.w3.org/2000/svg">
<path d="M0 71.3288L0.913871 18.9731L14.9913 19.2188L14.8318 28.3538L15.3772 28.3633C16.3883 25.1305 18.0332 22.7043 20.3118 21.0847C22.5908 19.4424 25.196 18.6468 28.1274 18.698C29.7408 18.7262 31.2603 18.9232 32.6859 19.289L32.461 32.1734C31.7833 31.9343 30.8434 31.736 29.6414 31.5787C28.4398 31.3986 27.3391 31.2998 26.3393 31.2823C23.1352 31.2264 20.4589 32.1912 18.3103 34.1768C16.1848 36.14 15.0939 38.7349 15.0375 41.9617L14.5205 71.5822L0 71.3288Z" fill="#F82FD8"/>
<path d="M53.9613 73.2935C48.5985 73.1999 43.9932 72.0285 40.1455 69.7792C36.2982 67.5071 33.3644 64.3418 31.344 60.2832C29.324 56.2019 28.3622 51.4003 28.4586 45.8784C28.5526 40.4928 29.6804 35.7845 31.842 31.7535C34.0036 27.7224 37.0017 24.6038 40.8362 22.3976C44.6935 20.1919 49.1899 19.1338 54.3255 19.2235C58.9384 19.304 63.0798 20.3537 66.7497 22.3726C70.4423 24.3919 73.3448 27.3976 75.4573 31.3896C77.5701 35.3589 78.5748 40.309 78.4713 46.2399L78.4017 50.2279L42.748 49.6056L42.7474 49.6397C42.6792 53.5482 43.6935 56.6459 45.7902 58.9328C47.887 61.2198 50.7533 62.395 54.3891 62.4585C56.8206 62.5009 58.9314 62.0263 60.7217 61.0347C62.5121 60.043 63.7882 58.5537 64.5503 56.5667L77.9646 57.6874C76.8572 62.5324 74.1988 66.373 69.9896 69.209C65.7804 72.0451 60.4376 73.4066 53.9613 73.2935ZM42.9051 40.607L64.8904 40.9907C64.922 37.8772 63.967 35.2919 62.0253 33.235C60.0836 31.1781 57.5335 30.122 54.3749 30.0669C51.1481 30.0106 48.4825 31.0097 46.3782 33.0642C44.2738 35.1187 43.1161 37.6329 42.9051 40.607Z" fill="#F82FD8"/>
<path d="M6.00012 71.3288L6.91399 18.9731L20.9914 19.2188L20.8319 28.3538L21.3773 28.3633C22.3884 25.1305 24.0333 22.7043 26.3119 21.0847C28.5909 19.4424 31.1961 18.6468 34.1275 18.698C35.7409 18.7262 37.2604 18.9232 38.6861 19.289L38.4612 32.1734C37.7834 31.9343 36.8435 31.736 35.6416 31.5787C34.44 31.3986 33.3393 31.2998 32.3394 31.2823C29.1353 31.2264 26.459 32.1912 24.3104 34.1768C22.1849 36.14 21.094 38.7349 21.0377 41.9617L20.5206 71.5822L6.00012 71.3288Z" fill="#FFDA1B"/>
<path d="M59.9614 73.2935C54.5986 73.1999 49.9934 72.0285 46.1457 69.7792C42.2984 67.5071 39.3645 64.3418 37.3441 60.2832C35.3242 56.2019 34.3624 51.4003 34.4587 45.8784C34.5527 40.4928 35.6805 35.7845 37.8421 31.7535C40.0037 27.7224 43.0018 24.6038 46.8363 22.3976C50.6936 20.1919 55.19 19.1338 60.3256 19.2235C64.9385 19.304 69.0799 20.3537 72.7498 22.3726C76.4424 24.3919 79.3449 27.3976 81.4574 31.3896C83.5703 35.3589 84.5749 40.309 84.4714 46.2399L84.4018 50.2279L48.7481 49.6056L48.7475 49.6397C48.6793 53.5482 49.6936 56.6459 51.7904 58.9328C53.8871 61.2198 56.7534 62.395 60.3892 62.4585C62.8207 62.5009 64.9316 62.0263 66.7219 61.0347C68.5122 60.043 69.7884 58.5537 70.5504 56.5667L83.9647 57.6874C82.8573 62.5324 80.1989 66.373 75.9897 69.209C71.7805 72.0451 66.4377 73.4066 59.9614 73.2935ZM48.9052 40.607L70.8905 40.9907C70.9221 37.8772 69.9671 35.2919 68.0254 33.235C66.0838 31.1781 63.5336 30.122 60.375 30.0669C57.1482 30.0106 54.4827 31.0097 52.3783 33.0642C50.2739 35.1187 49.1162 37.6329 48.9052 40.607Z" fill="#FFDA1B"/>
<path d="M3.59949 72.8093V20.4457H17.679V29.582H18.2245C19.179 26.332 20.7813 23.8775 23.0313 22.2184C25.2813 20.5366 27.8722 19.6957 30.804 19.6957C32.4177 19.6957 33.9404 19.8661 35.3722 20.207V33.0934C34.6904 32.8661 33.7472 32.6843 32.5427 32.548C31.3381 32.3889 30.2359 32.3093 29.2359 32.3093C26.0313 32.3093 23.3722 33.3207 21.2586 35.3434C19.1677 37.3434 18.1222 39.957 18.1222 43.1843V72.8093H3.59949Z" fill="#190947"/>
<path d="M57.5869 73.832C52.2232 73.832 47.5982 72.7411 43.7119 70.5593C39.8255 68.3548 36.8369 65.2411 34.746 61.2184C32.6551 57.173 31.6096 52.3889 31.6096 46.8661C31.6096 41.4798 32.6551 36.7525 34.746 32.6843C36.8369 28.6161 39.7801 25.4457 43.5755 23.1729C47.3937 20.9002 51.871 19.7639 57.0073 19.7639C61.621 19.7639 65.7801 20.7411 69.4846 22.6957C73.2119 24.6502 76.1664 27.6048 78.3482 31.5593C80.5301 35.4911 81.621 40.423 81.621 46.3548V50.3434H45.9619V50.3775C45.9619 54.2866 47.0301 57.3661 49.1664 59.6161C51.3028 61.8661 54.1891 62.9911 57.8255 62.9911C60.2573 62.9911 62.3596 62.4798 64.1323 61.457C65.9051 60.4343 67.1551 58.923 67.8823 56.923L81.3141 57.8093C80.2914 62.673 77.7005 66.5593 73.5414 69.4684C69.3823 72.3775 64.0641 73.832 57.5869 73.832ZM45.9619 41.3434H67.9505C67.9278 38.2298 66.9278 35.6616 64.9505 33.6389C62.9732 31.6161 60.4051 30.6048 57.246 30.6048C54.0187 30.6048 51.371 31.6502 49.3028 33.7411C47.2346 35.832 46.121 38.3661 45.9619 41.3434Z" fill="#190947"/>
<path d="M85.6971 73.1734L84.4786 3.36582L98.9992 3.11237L99.4573 29.3584L99.9004 29.3506C100.534 27.9075 101.441 26.4483 102.62 24.973C103.799 23.4976 105.368 22.2541 107.328 21.2425C109.288 20.2081 111.722 19.6656 114.63 19.6148C118.471 19.5478 122.01 20.4861 125.249 22.4299C128.488 24.351 131.108 27.2943 133.109 31.26C135.133 35.2025 136.197 40.1734 136.302 46.1725C136.404 52.0125 135.547 56.96 133.731 61.015C131.915 65.0473 129.423 68.1254 126.255 70.2492C123.086 72.3503 119.514 73.4355 115.537 73.5049C112.719 73.5541 110.314 73.1301 108.321 72.2329C106.35 71.3354 104.728 70.1931 103.453 68.806C102.201 67.3958 101.222 65.9695 100.514 64.5271L99.8668 64.5384L100.013 72.9235L85.6971 73.1734ZM99.4539 46.7474C99.5353 51.4058 100.555 55.1386 102.513 57.9458C104.494 60.7298 107.234 62.0913 110.734 62.0302C114.301 61.9679 117.003 60.4887 118.839 57.5926C120.675 54.6737 121.553 50.9306 121.473 46.3631C121.394 41.8183 120.387 38.1535 118.451 35.3687C116.538 32.5607 113.787 31.1881 110.196 31.2508C106.674 31.3123 103.983 32.7458 102.123 35.5514C100.262 38.3343 99.3722 42.0663 99.4539 46.7474Z" fill="#F82FD8"/>
<path d="M154.674 72.9582C149.675 73.0454 145.505 71.8112 142.165 69.2555C138.824 66.6997 137.108 62.8314 137.018 57.6503C136.95 53.7418 137.817 50.6581 139.618 48.399C141.42 46.1399 143.8 44.4731 146.759 43.3986C149.741 42.301 152.956 41.5629 156.404 41.1845C160.941 40.6507 164.182 40.1168 166.128 39.5827C168.073 39.0487 169.031 37.9409 169.002 36.2593L168.998 36.0548C168.961 33.8961 168.25 32.2378 166.866 31.0799C165.504 29.9217 163.585 29.3642 161.108 29.4074C158.495 29.453 156.426 30.0574 154.9 31.2206C153.375 32.3837 152.378 33.8446 151.908 35.603L138.459 34.7467C139.376 29.9572 141.787 26.1305 145.692 23.2664C149.62 20.402 154.72 18.915 160.991 18.8056C164.877 18.7377 168.524 19.2878 171.931 20.4558C175.338 21.6238 178.099 23.4964 180.212 26.0735C182.348 28.6275 183.452 31.9838 183.525 36.1422L184.141 71.455L170.37 71.6954L170.244 64.4351L169.835 64.4423C168.605 66.8959 166.731 68.9176 164.212 70.5072C161.717 72.0738 158.537 72.8907 154.674 72.9582ZM158.658 62.8644C161.839 62.8088 164.436 61.8429 166.449 59.9666C168.462 58.0675 169.444 55.7432 169.396 52.9936L169.299 47.4377C168.738 47.8339 167.858 48.1902 166.658 48.5066C165.482 48.8227 164.214 49.1062 162.854 49.3573C161.517 49.5852 160.316 49.788 159.251 49.9657C156.712 50.3737 154.668 51.1254 153.119 52.2208C151.592 53.3158 150.847 54.8858 150.883 56.931C150.917 58.9307 151.66 60.4293 153.109 61.4269C154.581 62.4241 156.431 62.9032 158.658 62.8644Z" fill="#F82FD8"/>
<path d="M231.596 33.1892L218.317 34.2393C217.924 32.5641 216.978 31.1372 215.48 29.9586C213.982 28.78 211.972 28.2127 209.449 28.2568C207.2 28.296 205.299 28.8065 203.748 29.7883C202.219 30.747 201.48 32.0101 201.53 33.5776C201.529 34.8278 202.036 35.8759 203.051 36.722C204.088 37.5676 205.828 38.2306 208.268 38.7108L217.777 40.4542C227.88 42.3463 233.007 46.9848 233.159 54.3697C233.219 57.801 232.26 60.8295 230.283 63.4553C228.328 66.0808 225.614 68.1512 222.14 69.6666C218.666 71.1593 214.667 71.9451 210.145 72.024C203.214 72.145 197.667 70.7984 193.504 67.9843C189.34 65.1474 186.874 61.2353 186.105 56.248L200.374 55.2488C200.865 57.3769 201.939 58.9721 203.594 60.0342C205.272 61.096 207.406 61.6043 209.997 61.5591C212.542 61.5147 214.578 60.979 216.106 59.9522C217.656 58.925 218.43 57.6386 218.425 56.093C218.312 53.5037 216.043 51.8044 211.619 50.9951L202.521 49.3468C192.351 47.5013 187.219 42.6015 187.126 34.6473C187.015 29.603 188.957 25.5913 192.951 22.612C196.967 19.6324 202.328 18.084 209.031 17.967C215.644 17.8516 220.872 19.1583 224.716 21.8871C228.582 24.6155 230.875 28.3828 231.596 33.1892Z" fill="#F82FD8"/>
<path d="M278.775 32.3657L265.496 33.4158C265.103 31.7405 264.157 30.3136 262.659 29.1351C261.161 27.9565 259.151 27.3892 256.629 27.4332C254.379 27.4725 252.478 27.983 250.927 28.9648C249.398 29.9234 248.659 31.1865 248.709 32.7541C248.708 34.0043 249.215 35.0524 250.23 35.8985C251.267 36.7441 253.007 37.4071 255.447 37.8873L264.956 39.6307C275.059 41.5228 280.186 46.1613 280.338 53.5462C280.398 56.9775 279.439 60.006 277.462 62.6318C275.507 65.2572 272.793 67.3277 269.319 68.8431C265.845 70.3358 261.846 71.1216 257.324 71.2005C250.394 71.3215 244.846 69.9749 240.683 67.1608C236.519 64.3239 234.053 60.4118 233.284 55.4245L247.553 54.4253C248.045 56.5534 249.118 58.1485 250.773 59.2107C252.451 60.2725 254.585 60.7808 257.176 60.7356C259.721 60.6912 261.757 60.1555 263.285 59.1287C264.835 58.1015 265.609 56.8151 265.604 55.2695C265.491 52.6801 263.222 50.9808 258.798 50.1716L249.7 48.5233C239.53 46.6778 234.398 41.7779 234.305 33.8238C234.194 28.7795 236.136 24.7678 240.13 21.7885C244.147 18.8089 249.507 17.2605 256.21 17.1435C262.823 17.0281 268.051 18.3348 271.895 21.0636C275.761 23.792 278.054 27.5593 278.775 32.3657Z" fill="#F82FD8"/>
<path d="M90.4757 69.8075L91.6942 0L106.215 0.253457L105.757 26.4995L106.2 26.5072C106.884 25.0871 107.841 23.6604 109.07 22.2271C110.3 20.7938 111.912 19.6058 113.906 18.6632C115.9 17.6979 118.352 17.2406 121.261 17.2914C125.101 17.3584 128.606 18.4197 131.775 20.4754C134.944 22.5082 137.46 25.5413 139.322 29.5744C141.207 33.5851 142.097 38.5901 141.992 44.5892C141.89 50.4292 140.861 55.3438 138.905 59.333C136.949 63.2994 134.351 66.2887 131.11 68.3006C127.871 70.2898 124.263 71.2497 120.286 71.1803C117.468 71.1311 115.079 70.6234 113.118 69.6572C111.18 68.6915 109.599 67.4932 108.373 66.0625C107.171 64.6095 106.242 63.1499 105.586 61.6837L104.938 61.6724L104.792 70.0574L90.4757 69.8075ZM105.146 43.8778C105.065 48.5362 105.954 52.3023 107.813 55.1761C109.696 58.0276 112.386 59.4838 115.886 59.5449C119.454 59.6072 122.205 58.2232 124.141 55.3929C126.078 52.5399 127.086 48.8297 127.166 44.2622C127.245 39.7174 126.366 36.0197 124.529 33.169C122.716 30.296 120.014 28.8282 116.423 28.7655C112.901 28.704 110.161 30.0428 108.204 32.7818C106.247 35.498 105.228 39.1967 105.146 43.8778Z" fill="#FFDA1B"/>
<path d="M159.418 71.9997C154.419 71.9125 150.295 70.5335 147.045 67.8627C143.796 65.192 142.217 61.2661 142.307 56.085C142.375 52.1765 143.349 49.1249 145.229 46.9301C147.108 44.7353 149.545 43.1526 152.54 42.182C155.558 41.189 158.796 40.5636 162.256 40.3058C166.809 39.9306 170.066 39.5102 172.029 39.0444C173.992 38.5785 174.989 37.5049 175.018 35.8233L175.022 35.6188C175.059 33.46 174.407 31.7779 173.064 30.5725C171.744 29.3674 169.845 28.7433 167.368 28.7001C164.755 28.6545 162.666 29.1863 161.101 30.2955C159.536 31.4047 158.488 32.8298 157.958 34.5708L144.547 33.2457C145.63 28.4911 148.173 24.7508 152.176 22.0248C156.201 19.2992 161.35 17.9911 167.622 18.1006C171.507 18.1684 175.132 18.8454 178.497 20.1316C181.861 21.4178 184.555 23.3856 186.577 26.0349C188.622 28.6619 189.609 32.0546 189.536 36.2131L188.92 71.5259L175.149 71.2855L175.276 64.0253L174.867 64.0181C173.552 66.4274 171.608 68.3824 169.036 69.8832C166.487 71.3616 163.281 72.0672 159.418 71.9997ZM163.752 62.0511C166.933 62.1067 169.562 61.232 171.64 59.427C173.717 57.5994 174.78 55.3107 174.828 52.5612L174.925 47.0052C174.35 47.3816 173.458 47.707 172.249 47.9814C171.062 48.2561 169.785 48.4953 168.417 48.6987C167.073 48.8798 165.865 49.0406 164.795 49.181C162.243 49.5002 160.174 50.1801 158.588 51.2207C157.024 52.2618 156.224 53.8049 156.188 55.85C156.153 57.8497 156.843 59.3733 158.257 60.4209C159.693 61.4688 161.525 62.0122 163.752 62.0511Z" fill="#FFDA1B"/>
<path d="M237.681 34.9395L224.373 35.5255C224.039 33.8376 223.144 32.3786 221.688 31.1484C220.232 29.9183 218.243 29.2812 215.72 29.2372C213.471 29.1979 211.553 29.6418 209.969 30.5688C208.407 31.4735 207.624 32.7101 207.62 34.2784C207.575 35.5278 208.045 36.593 209.03 37.474C210.037 38.3553 211.752 39.0785 214.175 39.6436L223.617 41.7178C233.648 43.9614 238.61 48.776 238.504 56.1616C238.444 59.5929 237.38 62.5862 235.312 65.1414C233.268 67.697 230.483 69.6714 226.958 71.0647C223.433 72.4352 219.41 73.081 214.888 73.0021C207.957 72.8811 202.461 71.3417 198.398 68.384C194.336 65.4036 192.007 61.4078 191.413 56.3967L205.708 55.8961C206.125 58.04 207.142 59.6717 208.759 60.791C210.399 61.9107 212.514 62.4931 215.105 62.5383C217.65 62.5828 219.704 62.1185 221.266 61.1457C222.852 60.1732 223.669 58.9145 223.719 57.3697C223.696 54.778 221.488 53.0006 217.095 52.0374L208.06 50.0726C197.96 47.8733 193.003 42.7973 193.187 34.8448C193.252 29.7997 195.333 25.8581 199.429 23.0201C203.547 20.1824 208.958 18.8221 215.661 18.9391C222.274 19.0546 227.453 20.5429 231.199 23.4042C234.968 26.2658 237.129 30.111 237.681 34.9395Z" fill="#FFDA1B"/>
<path d="M284.86 35.763L271.552 36.349C271.218 34.6611 270.323 33.2021 268.867 31.972C267.411 30.7418 265.422 30.1047 262.899 30.0607C260.65 30.0214 258.732 30.4653 257.148 31.3923C255.586 32.2971 254.803 33.5336 254.799 35.1019C254.754 36.3513 255.224 37.4165 256.209 38.2975C257.217 39.1788 258.931 39.902 261.354 40.4671L270.796 42.5413C280.827 44.7849 285.789 49.5995 285.683 56.9852C285.623 60.4165 284.559 63.4097 282.492 65.9649C280.447 68.5205 277.662 70.495 274.137 71.8882C270.612 73.2587 266.589 73.9045 262.067 73.8256C255.136 73.7046 249.64 72.1653 245.577 69.2075C241.515 66.2271 239.186 62.2313 238.592 57.2202L252.887 56.7196C253.304 58.8635 254.321 60.4952 255.938 61.6145C257.578 62.7342 259.693 63.3166 262.284 63.3619C264.829 63.4063 266.883 62.9421 268.446 61.9692C270.031 60.9967 270.848 59.738 270.898 58.1932C270.875 55.6015 268.667 53.8241 264.274 52.8609L255.239 50.8961C245.14 48.6968 240.182 43.6208 240.366 35.6683C240.431 30.6232 242.512 26.6817 246.608 23.8436C250.726 21.006 256.137 19.6456 262.84 19.7627C269.453 19.8781 274.632 21.3664 278.378 24.2277C282.147 27.0894 284.308 30.9345 284.86 35.763Z" fill="#FFDA1B"/>
<path d="M88.0577 71.0928V1.2746H102.58V27.5246H103.024C103.683 26.0928 104.615 24.6496 105.819 23.1951C107.024 21.7405 108.615 20.5246 110.592 19.5473C112.569 18.5473 115.012 18.0473 117.921 18.0473C121.762 18.0473 125.285 19.0473 128.49 21.0473C131.694 23.0246 134.262 26.0132 136.194 30.0132C138.149 33.9905 139.126 38.9791 139.126 44.9791C139.126 50.8201 138.183 55.7519 136.296 59.7746C134.41 63.7746 131.865 66.8087 128.66 68.8769C125.455 70.9223 121.865 71.9451 117.887 71.9451C115.069 71.9451 112.671 71.4791 110.694 70.5473C108.74 69.6155 107.137 68.4451 105.887 67.036C104.66 65.6041 103.705 64.161 103.024 62.7064H102.376V71.0928H88.0577ZM102.274 44.911C102.274 49.5701 103.228 53.3201 105.137 56.161C107.069 58.9791 109.785 60.3882 113.285 60.3882C116.853 60.3882 119.58 58.9564 121.467 56.0928C123.353 53.2064 124.296 49.4791 124.296 44.911C124.296 40.3655 123.353 36.6837 121.467 33.8655C119.603 31.0246 116.876 29.6041 113.285 29.6041C109.762 29.6041 107.046 30.9905 105.137 33.7632C103.228 36.5132 102.274 40.2291 102.274 44.911Z" fill="#190947"/>
<path d="M157.028 72.0814C152.028 72.0814 147.88 70.7746 144.585 68.161C141.289 65.5473 139.642 61.6496 139.642 56.4678C139.642 52.5587 140.562 49.4905 142.403 47.2632C144.244 45.036 146.653 43.411 149.63 42.3882C152.63 41.3428 155.858 40.661 159.312 40.3428C163.858 39.8882 167.108 39.411 169.062 38.911C171.017 38.411 171.994 37.3201 171.994 35.6382V35.4337C171.994 33.2746 171.312 31.6041 169.949 30.4223C168.608 29.2405 166.699 28.6496 164.221 28.6496C161.608 28.6496 159.528 29.2178 157.983 30.3541C156.437 31.4905 155.414 32.9337 154.914 34.6837L141.483 33.5928C142.483 28.8201 144.96 25.036 148.914 22.2405C152.892 19.4451 158.017 18.0473 164.289 18.0473C168.176 18.0473 171.812 18.661 175.199 19.8882C178.585 21.1155 181.312 23.036 183.38 25.6496C185.471 28.2405 186.517 31.6155 186.517 35.7746V71.0928H172.744V63.8314H172.335C171.062 66.2632 169.153 68.2519 166.608 69.7973C164.085 71.3201 160.892 72.0814 157.028 72.0814ZM161.187 62.0587C164.369 62.0587 166.983 61.1382 169.028 59.2973C171.074 57.4337 172.096 55.1269 172.096 52.3769V46.8201C171.528 47.2064 170.642 47.5473 169.437 47.8428C168.255 48.1382 166.983 48.3996 165.619 48.6269C164.278 48.8314 163.074 49.0132 162.005 49.1723C159.46 49.536 157.403 50.2519 155.835 51.3201C154.289 52.3882 153.517 53.9451 153.517 55.9905C153.517 57.9905 154.233 59.5019 155.664 60.5246C157.119 61.5473 158.96 62.0587 161.187 62.0587Z" fill="#190947"/>
<path d="M234.632 33.661L221.336 34.4791C220.973 32.7973 220.052 31.3541 218.575 30.1496C217.098 28.9451 215.098 28.3428 212.575 28.3428C210.325 28.3428 208.416 28.8201 206.848 29.7746C205.302 30.7064 204.541 31.9564 204.564 33.5246C204.541 34.7746 205.03 35.8314 206.03 36.6951C207.052 37.5587 208.78 38.2519 211.211 38.7746L220.689 40.6837C230.757 42.7519 235.802 47.4791 235.825 54.8655C235.825 58.2973 234.814 61.3087 232.791 63.8996C230.791 66.4905 228.041 68.5132 224.541 69.9678C221.041 71.3996 217.03 72.1155 212.507 72.1155C205.575 72.1155 200.052 70.6723 195.939 67.786C191.825 64.8769 189.427 60.9223 188.746 55.9223L203.03 55.1723C203.484 57.3087 204.53 58.9223 206.166 60.0132C207.825 61.1041 209.95 61.6496 212.541 61.6496C215.086 61.6496 217.132 61.1496 218.677 60.1496C220.246 59.1496 221.041 57.8769 221.064 56.3314C220.996 53.7405 218.757 52.0019 214.348 51.1155L205.28 49.3087C195.143 47.286 190.098 42.2973 190.143 34.3428C190.121 29.2973 192.132 25.3201 196.177 22.411C200.246 19.5019 205.632 18.0473 212.336 18.0473C218.95 18.0473 224.155 19.4451 227.95 22.2405C231.768 25.036 233.996 28.8428 234.632 33.661Z" fill="#190947"/>
<path d="M281.818 33.661L268.523 34.4791C268.159 32.7973 267.239 31.3541 265.761 30.1496C264.284 28.9451 262.284 28.3428 259.761 28.3428C257.511 28.3428 255.602 28.8201 254.034 29.7746C252.489 30.7064 251.727 31.9564 251.75 33.5246C251.727 34.7746 252.216 35.8314 253.216 36.6951C254.239 37.5587 255.966 38.2519 258.398 38.7746L267.875 40.6837C277.943 42.7519 282.989 47.4791 283.011 54.8655C283.011 58.2973 282 61.3087 279.977 63.8996C277.977 66.4905 275.227 68.5132 271.727 69.9678C268.227 71.3996 264.216 72.1155 259.693 72.1155C252.761 72.1155 247.239 70.6723 243.125 67.786C239.011 64.8769 236.614 60.9223 235.932 55.9223L250.216 55.1723C250.67 57.3087 251.716 58.9223 253.352 60.0132C255.011 61.1041 257.136 61.6496 259.727 61.6496C262.273 61.6496 264.318 61.1496 265.864 60.1496C267.432 59.1496 268.227 57.8769 268.25 56.3314C268.182 53.7405 265.943 52.0019 261.534 51.1155L252.466 49.3087C242.33 47.286 237.284 42.2973 237.33 34.3428C237.307 29.2973 239.318 25.3201 243.364 22.411C247.432 19.5019 252.818 18.0473 259.523 18.0473C266.136 18.0473 271.341 19.4451 275.136 22.2405C278.955 25.036 281.182 28.8428 281.818 33.661Z" fill="#190947"/>
</svg>
